<svg width="18" height="18" viewBox="0 0 18 18" fill="none" xmlns="http://www.w3.org/2000/svg">
<path d="M3.81128 0.749756C2.12964 0.749756 0.749756 2.12964 0.749756 3.81128V14.1882C0.749756 15.8699 2.12964 17.2498 3.81128 17.2498H14.1882C15.8699 17.2498 17.2498 15.8699 17.2498 14.1882V3.81128C17.2498 2.12964 15.8699 0.749756 14.1882 0.749756H3.81128ZM3.81128 2.24976H14.1882C15.0583 2.24976 15.7498 2.94116 15.7498 3.81128V14.1882C15.7498 15.0583 15.0583 15.7498 14.1882 15.7498H3.81128C2.94116 15.7498 2.24976 15.0583 2.24976 14.1882V3.81128C2.24976 2.94116 2.94116 2.24976 3.81128 2.24976ZM8.78882 6.17261C8.23804 6.16675 7.76929 6.17261 7.50562 6.30151C7.32983 6.38647 7.19507 6.57983 7.2771 6.58862C7.37964 6.60327 7.61108 6.65308 7.73413 6.82007C7.89233 7.03393 7.88647 7.51733 7.88647 7.51733C7.88647 7.51733 7.97436 8.84741 7.67261 9.0144C7.4646 9.12866 7.18042 8.89722 6.56519 7.8396C6.25171 7.29468 6.0144 6.69409 6.0144 6.69409C6.0144 6.69409 5.97046 6.58276 5.88843 6.52417C5.78882 6.45093 5.65112 6.42749 5.65112 6.42749L4.18335 6.43628C4.18335 6.43628 3.96362 6.44507 3.88452 6.53882C3.81128 6.62671 3.87866 6.79956 3.87866 6.79956C3.87866 6.79956 5.0271 9.48608 6.32788 10.8396C7.52026 12.0818 8.87378 11.9998 8.87378 11.9998H9.48901C9.48901 11.9998 9.67358 11.9792 9.76733 11.8796C9.85522 11.7859 9.85229 11.6101 9.85229 11.6101C9.85229 11.6101 9.84058 10.7869 10.2214 10.6638C10.5994 10.5466 11.0798 11.4607 11.5925 11.8123C11.9822 12.0789 12.2781 12.0203 12.2781 12.0203L13.6492 11.9998C13.6492 11.9998 14.364 11.9558 14.0242 11.3904C13.9978 11.3464 13.8279 10.9744 13.0076 10.2126C12.1462 9.41577 12.2605 9.54468 13.2976 8.16479C13.9275 7.32397 14.1794 6.81128 14.1003 6.58862C14.0242 6.38062 13.5613 6.43628 13.5613 6.43628L12.0173 6.44507C12.0173 6.44507 11.9031 6.43042 11.8181 6.48022C11.7361 6.53003 11.6833 6.64722 11.6833 6.64722C11.6833 6.64722 11.4373 7.29761 11.1121 7.85132C10.4265 9.01733 10.1482 9.08179 10.0369 9.00854C9.77612 8.83862 9.84058 8.32886 9.84058 7.96851C9.84058 6.83472 10.0134 6.36597 9.50659 6.24292C9.3396 6.2019 9.21655 6.17554 8.78882 6.17261Z" fill="#071739"/>
</svg>
